<?xml version="1.0" encoding="UTF-8" standalone="no"?>
<!DOCTYPE svg PUBLIC "-//W3C//DTD SVG 1.1//EN"
 "http://www.w3.org/Graphics/SVG/1.1/DTD/svg11.dtd">
<!-- Generated by graphviz version 2.43.0 (0)
 -->
<!-- Title: ex1 Pages: 1 -->
<svg width="170pt" height="116pt"
 viewBox="0.00 0.00 170.00 116.00" xmlns="http://www.w3.org/2000/svg" xmlns:xlink="http://www.w3.org/1999/xlink">
<g id="graph0" class="graph" transform="scale(1 1) rotate(0) translate(4 112)">
<title>ex1</title>
<polygon fill="white" stroke="transparent" points="-4,4 -4,-112 166,-112 166,4 -4,4"/>
<!-- v1 -->
<g id="node1" class="node">
<title>v1</title>
<ellipse fill="none" stroke="black" cx="27" cy="-90" rx="27" ry="18"/>
<text text-anchor="middle" x="27" y="-86.3" font-family="Times,serif" font-size="14.00">v1</text>
</g>
<!-- v1&#45;&#45;v1 -->
<g id="edge1" class="edge">
<title>v1&#45;&#45;v1</title>
<path fill="none" stroke="black" d="M46.9,-102.43C59.69,-105.68 72,-101.53 72,-90 72,-78.47 59.69,-74.32 46.9,-77.57"/>
</g>
<!-- v3 -->
<g id="node2" class="node">
<title>v3</title>
<ellipse fill="none" stroke="black" cx="27" cy="-18" rx="27" ry="18"/>
<text text-anchor="middle" x="27" y="-14.3" font-family="Times,serif" font-size="14.00">v3</text>
</g>
<!-- v1&#45;&#45;v3 -->
<g id="edge2" class="edge">
<title>v1&#45;&#45;v3</title>
<path fill="none" stroke="black" d="M27,-71.7C27,-60.85 27,-46.92 27,-36.1"/>
</g>
<!-- v3&#45;&#45;v3 -->
<g id="edge4" class="edge">
<title>v3&#45;&#45;v3</title>
<path fill="none" stroke="black" d="M46.9,-30.43C59.69,-33.68 72,-29.53 72,-18 72,-6.47 59.69,-2.32 46.9,-5.57"/>
</g>
<!-- v2 -->
<g id="node3" class="node">
<title>v2</title>
<ellipse fill="none" stroke="black" cx="117" cy="-90" rx="27" ry="18"/>
<text text-anchor="middle" x="117" y="-86.3" font-family="Times,serif" font-size="14.00">v2</text>
</g>
<!-- v2&#45;&#45;v2 -->
<g id="edge3" class="edge">
<title>v2&#45;&#45;v2</title>
<path fill="none" stroke="black" d="M136.9,-102.43C149.69,-105.68 162,-101.53 162,-90 162,-78.47 149.69,-74.32 136.9,-77.57"/>
</g>
</g>
</svg>
